<svg xmlns="http://www.w3.org/2000/svg" version="1.1" width="1024" height="768">
<rect x="0" y="0" width="1024" height="768" fill="#868377" />
<g transform="scale(4.000000) translate(0.5 0.5)">
<polygon fill="#423c2c" fill-opacity="0.501961" points="-16,182 140,153 268,206" />
<polygon fill="#fbd562" fill-opacity="0.501961" points="154,123 144,62 252,58" />
<polygon fill="#d2c77c" fill-opacity="0.501961" points="67,148 11,46 80,50" />
<polygon fill="#dfba45" fill-opacity="0.501961" points="186,172 271,156 110,143" />
<polygon fill="#9da4b7" fill-opacity="0.501961" points="199,16 59,55 -16,18" />
<polygon fill="#70769f" fill-opacity="0.501961" points="104,26 32,102 271,35" />
<polygon fill="#ffffff" fill-opacity="0.501961" points="114,2 -16,3 51,-16" />
<polygon fill="#475a7b" fill-opacity="0.501961" points="61,146 -7,38 -10,162" />
<polygon fill="#455878" fill-opacity="0.501961" points="271,147 161,148 185,92" />
<polygon fill="#282c29" fill-opacity="0.501961" points="271,172 193,174 271,206" />
<polygon fill="#fff1d1" fill-opacity="0.501961" points="131,139 118,148 79,123" />
<polygon fill="#f8e3c9" fill-opacity="0.501961" points="209,14 177,24 246,25" />
<polygon fill="#d5b460" fill-opacity="0.501961" points="58,160 111,146 161,163" />
<polygon fill="#fffff1" fill-opacity="0.501961" points="108,3 112,-16 181,2" />
<polygon fill="#e4b642" fill-opacity="0.501961" points="62,144 83,102 46,94" />
<polygon fill="#fffff2" fill-opacity="0.501961" points="210,-16 190,3 271,1" />
<polygon fill="#414061" fill-opacity="0.501961" points="134,144 140,104 169,145" />
<polygon fill="#353f5b" fill-opacity="0.501961" points="67,151 116,146 79,128" />
<polygon fill="#424642" fill-opacity="0.501961" points="224,3 193,18 143,5" />
<polygon fill="#fff0c5" fill-opacity="0.501961" points="127,148 138,127 136,101" />
<polygon fill="#716a8c" fill-opacity="0.501961" points="49,77 113,136 158,68" />
<polygon fill="#e5c457" fill-opacity="0.501961" points="216,96 158,62 229,56" />
<polygon fill="#3b4241" fill-opacity="0.501961" points="30,17 75,3 -7,3" />
<polygon fill="#e7c646" fill-opacity="0.501961" points="58,151 20,161 88,162" />
<polygon fill="#e5c85f" fill-opacity="0.501961" points="79,60 20,87 31,53" />
<polygon fill="#533029" fill-opacity="0.501961" points="178,163 109,164 139,188" />
<polygon fill="#003d19" fill-opacity="0.501961" points="212,179 209,164 194,164" />
<polygon fill="#e3ae48" fill-opacity="0.501961" points="176,98 142,93 163,134" />
<polygon fill="#758fa6" fill-opacity="0.501961" points="-15,29 22,26 30,101" />
<polygon fill="#777d91" fill-opacity="0.501961" points="-16,29 138,69 265,24" />
<polygon fill="#564d4d" fill-opacity="0.501961" points="98,18 63,4 143,5" />
<polygon fill="#647c8c" fill-opacity="0.501961" points="260,-10 261,95 210,135" />
<polygon fill="#ffebd0" fill-opacity="0.501961" points="79,26 72,17 96,19" />
<polygon fill="#4a5849" fill-opacity="0.501961" points="67,161 61,190 -16,186" />
<polygon fill="#4b544d" fill-opacity="0.501961" points="271,8 219,2 215,18" />
<polygon fill="#c9aaa9" fill-opacity="0.501961" points="105,162 130,158 121,118" />
<polygon fill="#88b1cf" fill-opacity="0.501961" points="147,91 164,79 177,93" />
<polygon fill="#cdb19a" fill-opacity="0.501961" points="113,170 102,181 102,207" />
<polygon fill="#bfbba6" fill-opacity="0.501961" points="95,20 168,17 110,37" />
<polygon fill="#d8be43" fill-opacity="0.501961" points="271,111 236,118 253,130" />
<polygon fill="#47574b" fill-opacity="0.501961" points="127,13 144,25 151,3" />
<polygon fill="#005f4c" fill-opacity="0.501961" points="1,173 11,176 10,165" />
<polygon fill="#008964" fill-opacity="0.501961" points="76,22 64,25 61,17" />
<polygon fill="#5b5262" fill-opacity="0.501961" points="133,106 129,127 81,101" />
<polygon fill="#4b4644" fill-opacity="0.501961" points="123,207 114,179 139,130" />
<polygon fill="#fffcd8" fill-opacity="0.501961" points="68,120 86,121 98,131" />
<polygon fill="#e5feea" fill-opacity="0.501961" points="84,169 94,172 98,167" />
<polygon fill="#f8ffe4" fill-opacity="0.501961" points="33,177 26,175 30,164" />
<polygon fill="#ffffea" fill-opacity="0.501961" points="108,-16 162,1 47,0" />
<polygon fill="#a3b298" fill-opacity="0.501961" points="247,96 244,59 213,47" />
<polygon fill="#a4b3b2" fill-opacity="0.501961" points="211,175 247,170 215,158" />
<polygon fill="#d3fbfe" fill-opacity="0.501961" points="42,17 28,18 43,29" />
<polygon fill="#86a3a9" fill-opacity="0.501961" points="50,75 -3,90 55,95" />
<polygon fill="#f1ebee" fill-opacity="0.501961" points="197,171 188,166 178,172" />
<polygon fill="#dbb74b" fill-opacity="0.501961" points="101,149 63,154 90,164" />
<polygon fill="#213c3d" fill-opacity="0.501961" points="95,190 76,176 106,169" />
<polygon fill="#ecffff" fill-opacity="0.501961" points="64,26 58,19 49,25" />
<polygon fill="#e4a44e" fill-opacity="0.501961" points="224,15 255,16 243,23" />
<polygon fill="#69708a" fill-opacity="0.501961" points="160,146 156,114 140,105" />
<polygon fill="#988a75" fill-opacity="0.501961" points="135,161 119,195 127,207" />
<polygon fill="#fb9f31" fill-opacity="0.501961" points="162,172 169,177 171,168" />
<polygon fill="#fffcd2" fill-opacity="0.501961" points="131,101 136,102 138,118" />
<polygon fill="#f4f1cb" fill-opacity="0.501961" points="59,207 2,191 73,190" />
<polygon fill="#616f80" fill-opacity="0.501961" points="264,66 183,21 249,32" />
<polygon fill="#8c8d93" fill-opacity="0.501961" points="209,125 171,124 175,97" />
<polygon fill="#949e9e" fill-opacity="0.501961" points="169,67 208,54 178,43" />
<polygon fill="#fcba8d" fill-opacity="0.501961" points="175,22 201,13 220,20" />
<polygon fill="#4b2e06" fill-opacity="0.501961" points="248,164 264,207 271,164" />
<polygon fill="#843637" fill-opacity="0.501961" points="42,17 49,26 53,16" />
<polygon fill="#ffffff" fill-opacity="0.501961" points="248,16 271,22 262,15" />
<polygon fill="#2d380f" fill-opacity="0.501961" points="27,175 18,176 26,163" />
<polygon fill="#94a297" fill-opacity="0.501961" points="234,102 220,114 178,91" />
<polygon fill="#d88763" fill-opacity="0.501961" points="19,15 32,25 -10,25" />
<polygon fill="#ceffff" fill-opacity="0.501961" points="158,26 155,16 166,16" />
<polygon fill="#ce856e" fill-opacity="0.501961" points="95,23 121,7 116,25" />
<polygon fill="#c6ac5f" fill-opacity="0.501961" points="41,101 65,139 87,98" />
<polygon fill="#d2a13c" fill-opacity="0.501961" points="157,147 146,149 155,175" />
<polygon fill="#625763" fill-opacity="0.501961" points="109,114 89,125 118,137" />
<polygon fill="#003838" fill-opacity="0.501961" points="176,172 176,165 161,163" />
<polygon fill="#fff4d6" fill-opacity="0.501961" points="18,174 13,162 19,167" />
<polygon fill="#bfc29e" fill-opacity="0.501961" points="167,57 152,80 141,71" />
<polygon fill="#09212e" fill-opacity="0.501961" points="237,20 238,10 241,25" />
<polygon fill="#d8bb5e" fill-opacity="0.501961" points="20,52 60,49 55,78" />
<polygon fill="#003967" fill-opacity="0.501961" points="223,168 226,163 229,180" />
<polygon fill="#054a49" fill-opacity="0.501961" points="186,172 211,170 202,178" />
<polygon fill="#50616d" fill-opacity="0.501961" points="73,142 17,141 59,155" />
<polygon fill="#493e3f" fill-opacity="0.501961" points="152,29 139,43 154,38" />
<polygon fill="#dcb95a" fill-opacity="0.501961" points="198,53 170,96 227,88" />
<polygon fill="#00492a" fill-opacity="0.501961" points="34,173 42,170 32,166" />
<polygon fill="#fce6c8" fill-opacity="0.501961" points="130,144 104,132 113,147" />
<polygon fill="#c2b55b" fill-opacity="0.501961" points="3,161 64,154 46,168" />
<polygon fill="#2a3f52" fill-opacity="0.501961" points="271,156 232,147 271,145" />
<polygon fill="#c7f6ff" fill-opacity="0.501961" points="2,160 -16,176 2,171" />
<polygon fill="#dbc15d" fill-opacity="0.501961" points="24,84 43,88 22,70" />
<polygon fill="#ffffe5" fill-opacity="0.501961" points="66,171 67,168 74,169" />
<polygon fill="#d5b144" fill-opacity="0.501961" points="161,160 225,159 174,146" />
<polygon fill="#008e4d" fill-opacity="0.501961" points="50,164 61,165 49,179" />
<polygon fill="#545c6b" fill-opacity="0.501961" points="39,110 -16,121 34,88" />
<polygon fill="#565148" fill-opacity="0.501961" points="169,17 156,13 172,-16" />
<polygon fill="#00406e" fill-opacity="0.501961" points="237,163 232,164 234,175" />
<polygon fill="#ba6b46" fill-opacity="0.501961" points="140,128 125,139 113,135" />
<polygon fill="#ffd8bb" fill-opacity="0.501961" points="234,164 241,171 247,168" />
<polygon fill="#ffffff" fill-opacity="0.501961" points="180,24 178,14 182,19" />
<polygon fill="#56656d" fill-opacity="0.501961" points="237,103 187,144 234,151" />
<polygon fill="#95100b" fill-opacity="0.501961" points="10,172 15,177 14,165" />
<polygon fill="#054a32" fill-opacity="0.501961" points="98,164 96,177 112,163" />
<polygon fill="#fbd400" fill-opacity="0.501961" points="206,22 207,15 212,23" />
<polygon fill="#827b8d" fill-opacity="0.501961" points="143,98 144,27 64,33" />
<polygon fill="#ffffff" fill-opacity="0.501961" points="215,15 212,23 216,23" />
<polygon fill="#b94a28" fill-opacity="0.501961" points="177,164 176,175 190,165" />
<polygon fill="#005568" fill-opacity="0.501961" points="86,163 75,175 94,164" />
<polygon fill="#70899f" fill-opacity="0.501961" points="51,21 57,50 7,50" />
<polygon fill="#99a0b0" fill-opacity="0.501961" points="111,145 130,146 120,163" />
<polygon fill="#a2c5bf" fill-opacity="0.501961" points="82,54 84,62 58,74" />
<polygon fill="#52626f" fill-opacity="0.501961" points="239,104 271,93 214,90" />
<polygon fill="#ffbf85" fill-opacity="0.501961" points="120,143 115,126 121,123" />
<polygon fill="#a9201d" fill-opacity="0.501961" points="133,172 148,174 144,160" />
<polygon fill="#e76523" fill-opacity="0.501961" points="66,169 59,166 59,174" />
<polygon fill="#e3b054" fill-opacity="0.501961" points="153,83 150,110 142,103" />
<polygon fill="#babdaf" fill-opacity="0.501961" points="71,207 82,187 24,197" />
<polygon fill="#d9b64c" fill-opacity="0.501961" points="204,69 225,57 249,60" />
<polygon fill="#d3e1d7" fill-opacity="0.501961" points="4,29 4,19 -16,24" />
<polygon fill="#11a07e" fill-opacity="0.501961" points="173,18 178,26 178,15" />
<polygon fill="#b6c9c7" fill-opacity="0.501961" points="234,24 251,22 260,28" />
<polygon fill="#57607a" fill-opacity="0.501961" points="8,62 25,59 8,87" />
<polygon fill="#707a88" fill-opacity="0.501961" points="54,114 58,133 13,123" />
<polygon fill="#efbe44" fill-opacity="0.501961" points="204,163 201,170 204,171" />
<polygon fill="#655955" fill-opacity="0.501961" points="39,171 5,188 79,187" />
<polygon fill="#f9ffff" fill-opacity="0.501961" points="193,172 197,168 183,167" />
<polygon fill="#7e7f7c" fill-opacity="0.501961" points="116,185 107,160 105,185" />
<polygon fill="#0e6275" fill-opacity="0.501961" points="8,163 16,181 0,163" />
<polygon fill="#514d59" fill-opacity="0.501961" points="139,120 133,139 155,143" />
<polygon fill="#2a1824" fill-opacity="0.501961" points="125,124 126,136 130,125" />
<polygon fill="#525651" fill-opacity="0.501961" points="166,207 114,174 271,174" />
<polygon fill="#22110f" fill-opacity="0.501961" points="89,23 99,22 94,24" />
<polygon fill="#8db3d2" fill-opacity="0.501961" points="58,92 84,98 70,99" />
<polygon fill="#ffffbd" fill-opacity="0.501961" points="236,22 231,14 233,23" />
<polygon fill="#767a78" fill-opacity="0.501961" points="78,17 13,17 43,6" />
<polygon fill="#a98439" fill-opacity="0.501961" points="130,166 158,156 134,147" />
<polygon fill="#7a7a6d" fill-opacity="0.501961" points="201,185 236,179 236,189" />
<polygon fill="#777f7c" fill-opacity="0.501961" points="197,20 171,6 210,6" />
<polygon fill="#706a7b" fill-opacity="0.501961" points="86,92 85,124 147,94" />
<polygon fill="#e7baa3" fill-opacity="0.501961" points="130,152 133,123 124,143" />
<polygon fill="#fffff0" fill-opacity="0.501961" points="60,25 53,21 61,19" />
<polygon fill="#9baeb4" fill-opacity="0.501961" points="73,50 58,28 65,60" />
<polygon fill="#685551" fill-opacity="0.501961" points="76,126 110,139 108,153" />
<polygon fill="#82807d" fill-opacity="0.501961" points="77,7 135,9 103,18" />
<polygon fill="#f9f3d8" fill-opacity="0.501961" points="248,166 236,170 247,171" />
<polygon fill="#3c0328" fill-opacity="0.501961" points="33,20 24,20 32,23" />
<polygon fill="#ffd68f" fill-opacity="0.501961" points="104,184 103,200 118,204" />
<polygon fill="#0c0f16" fill-opacity="0.501961" points="128,161 126,166 109,165" />
<polygon fill="#85968c" fill-opacity="0.501961" points="267,53 218,72 225,91" />
<polygon fill="#4eaacb" fill-opacity="0.501961" points="154,23 176,27 163,20" />
<polygon fill="#ba9c49" fill-opacity="0.501961" points="107,163 60,161 108,150" />
<polygon fill="#545048" fill-opacity="0.501961" points="100,14 86,3 131,3" />
<polygon fill="#84a5bb" fill-opacity="0.501961" points="204,56 233,57 219,49" />
<polygon fill="#b8a454" fill-opacity="0.501961" points="206,150 271,155 240,167" />
<polygon fill="#dab85d" fill-opacity="0.501961" points="195,56 230,72 147,77" />
<polygon fill="#301919" fill-opacity="0.501961" points="62,164 57,169 74,165" />
<polygon fill="#9e99a6" fill-opacity="0.501961" points="119,48 125,80 130,44" />
<polygon fill="#1c8c77" fill-opacity="0.501961" points="65,14 77,25 62,24" />
<polygon fill="#fff0cd" fill-opacity="0.501961" points="112,136 102,137 91,127" />
<polygon fill="#eacdb8" fill-opacity="0.501961" points="223,167 223,173 210,174" />
<polygon fill="#4c576e" fill-opacity="0.501961" points="230,52 260,60 248,47" />
<polygon fill="#421616" fill-opacity="0.501961" points="215,167 215,176 219,179" />
<polygon fill="#8c8c9d" fill-opacity="0.501961" points="103,81 86,84 80,113" />
<polygon fill="#4f5d6b" fill-opacity="0.501961" points="41,145 32,157 -1,158" />
<polygon fill="#ffc874" fill-opacity="0.501961" points="102,19 120,18 117,23" />
<polygon fill="#cab477" fill-opacity="0.501961" points="154,129 170,115 185,119" />
<polygon fill="#c0b16a" fill-opacity="0.501961" points="75,152 41,164 100,162" />
<polygon fill="#8a9a83" fill-opacity="0.501961" points="271,103 212,99 253,118" />
<polygon fill="#ff5f63" fill-opacity="0.501961" points="182,23 194,19 182,16" />
<polygon fill="#a2b7c3" fill-opacity="0.501961" points="41,109 45,114 32,117" />
<polygon fill="#424943" fill-opacity="0.501961" points="17,4 -16,5 11,15" />
<polygon fill="#f06a69" fill-opacity="0.501961" points="230,23 233,17 214,23" />
<polygon fill="#4a7e96" fill-opacity="0.501961" points="13,37 17,18 21,37" />
<polygon fill="#ffeecc" fill-opacity="0.501961" points="136,99 139,106 131,103" />
<polygon fill="#f9dae2" fill-opacity="0.501961" points="90,19 102,24 107,20" />
<polygon fill="#873523" fill-opacity="0.501961" points="258,164 271,174 237,164" />
<polygon fill="#9da2a3" fill-opacity="0.501961" points="250,40 238,30 226,40" />
<polygon fill="#173b30" fill-opacity="0.501961" points="196,166 204,184 205,174" />
<polygon fill="#2d2118" fill-opacity="0.501961" points="117,173 126,207 115,207" />
<polygon fill="#dfe0c8" fill-opacity="0.501961" points="132,27 120,20 130,16" />
<polygon fill="#cfb25e" fill-opacity="0.501961" points="38,105 69,127 80,103" />
<polygon fill="#93b6c0" fill-opacity="0.501961" points="39,76 47,90 56,78" />
<polygon fill="#9c2049" fill-opacity="0.501961" points="187,166 198,167 190,162" />
<polygon fill="#b5a654" fill-opacity="0.501961" points="241,114 266,120 233,126" />
<polygon fill="#847b77" fill-opacity="0.501961" points="97,6 123,17 69,17" />
<polygon fill="#401b50" fill-opacity="0.501961" points="260,19 255,22 244,19" />
<polygon fill="#d8736b" fill-opacity="0.501961" points="78,14 76,20 85,24" />
<polygon fill="#e5ab72" fill-opacity="0.501961" points="133,186 121,207 78,206" />
<polygon fill="#ffe7cc" fill-opacity="0.501961" points="137,121 134,109 131,130" />
<polygon fill="#dee8cd" fill-opacity="0.501961" points="270,-16 201,-3 252,3" />
<polygon fill="#61647a" fill-opacity="0.501961" points="56,79 100,82 69,70" />
<polygon fill="#51534f" fill-opacity="0.501961" points="6,189 -16,177 35,175" />
<polygon fill="#5e6a80" fill-opacity="0.501961" points="170,63 199,28 211,34" />
<polygon fill="#fd777a" fill-opacity="0.501961" points="154,14 150,24 155,25" />
<polygon fill="#076853" fill-opacity="0.501961" points="216,17 225,11 225,18" />
<polygon fill="#676a7f" fill-opacity="0.501961" points="177,102 199,141 194,94" />
<polygon fill="#313023" fill-opacity="0.501961" points="181,2 176,4 179,8" />
</g>
</svg>